#!OML:ASF F:\VICON\USERDATA\INSTALL\rory3\rory3.ASF
:FULLY-SPECIFIED
:DEGREES
1043
root 3.30249 19.8867 0.0292376 14.2656 -6.01633 -8.9158
lowerback 2.38756 -1.18375 4.05436
upperback -5.12013 -1.1687 3.43796
thorax -6.69387 -0.692714 1.41899
lowerneck -15.5536 -1.48281 -5.31112
upperneck 21.1176 -2.01568 5.46263
head 9.32306 -0.773467 2.52003
rclavicle 4.17448e-014 -3.39922e-014
rhumerus -46.6094 8.14201 -81.5397
rradius 63.1771
rwrist 6.00898
rhand -24.436 -47.0778
rfingers 7.12502
rthumb 2.05629 -797.048
lclavicle 4.17448e-014 -3.39922e-014
lhumerus -43.2578 -19.191 90.28
lradius 56.3798
lwrist 1.41487
lhand -30.1022 -38.3533
lfingers 7.12502
lthumb -3.41618 -8.40097
rfemur -98.3436 2.26566 29.7007
rtibia 140.291
rfoot 8.07215 2.01907
rtoes -6.06798
lfemur -16.2455 -3.52679 -15.7114
ltibia 12.5968
lfoot 16.4019 3.64468
ltoes -10.7669
1044
root 3.31335 19.8569 0.0272916 14.1412 -5.89809 -8.70539
lowerback 2.6445 -1.24755 3.96806
upperback -5.20066 -1.24479 3.32777
thorax -6.92915 -0.731122 1.36818
lowerneck -15.5395 -1.45818 -5.23428
upperneck 21.0169 -1.99869 5.46614
head 9.28362 -0.759023 2.50885
rclavicle 5.05658e-015 -3.97569e-015
rhumerus -46.4225 8.08945 -81.8779
rradius 62.404
rwrist 6.35768
rhand -24.0119 -46.7026
rfingers 7.12502
rthumb 2.46586 -796.668
lclavicle 5.05658e-015 -3.97569e-015
lhumerus -43.6361 -18.6481 90.5861
lradius 55.5567
lwrist 1.15189
lhand -30.1652 -38.034
lfingers 7.12502
lthumb -3.477 -8.08265
rfemur -97.7516 1.92521 29.7264
rtibia 140.473
rfoot 7.98086 2.11997
rtoes -6.72467
lfemur -16.5579 -3.83585 -15.8046
ltibia 13.4468
lfoot 14.534 3.52439
ltoes -7.89228
1045
root 3.31973 19.822 0.0251348 14.1786 -6.00493 -8.73365
lowerback 2.65337 -1.20728 4.03736
upperback -5.12809 -1.19385 3.2475
thorax -6.85952 -0.710813 1.2389
lowerneck -15.9793 -1.49166 -5.0078
upperneck 20.927 -2.03987 5.29893
head 9.3329 -0.772062 2.40648
rclavicle 6.73383e-015 -3.18055e-014
rhumerus -45.8976 7.93473 -82.2046
rradius 61.6513
rwrist 6.70336
rhand -23.4076 -46.4843
rfingers 7.12502
rthumb 3.04951 -796.442
lclavicle 6.73383e-015 -3.18055e-014
lhumerus -43.5595 -18.2064 90.7124
lradius 54.66
lwrist 1.19487
lhand -29.6733 -37.6276
lfingers 7.12502
lthumb -3.00196 -7.66894
rfemur -97.2613 2.33158 29.9611
rtibia 140.396
rfoot 8.03443 1.72469
rtoes -6.89612
lfemur -16.9266 -4.00894 -15.6435
ltibia 14.129
lfoot 12.3163 3.16032
ltoes -7.74722
1046
root 3.32449 19.775 0.0128808 14.2398 -6.23479 -8.78164
lowerback 2.66893 -1.15201 4.04837
upperback -5.00798 -1.12821 3.16609
thorax -6.74094 -0.679316 1.13847
lowerneck -16.3313 -1.57783 -4.78557
upperneck 20.6281 -2.1533 5.13982
head 9.29706 -0.819777 2.29527
rclavicle -5.62561e-014 -1.59028e-015
rhumerus -45.3384 7.87549 -82.576
rradius 61.0463
rwrist 6.80889
rhand -22.7213 -47.4333
rfingers 7.12502
rthumb 3.71227 -797.381
lclavicle -5.62561e-014 -1.59028e-015
lhumerus -43.2787 -17.7852 90.696
lradius 53.6536
lwrist 1.25735
lhand -29.3433 -37.1476
lfingers 7.12502
lthumb -2.68326 -7.18472
rfemur -96.9198 2.91565 30.2459
rtibia 140.223
rfoot 8.32489 1.41287
rtoes -6.16122
lfemur -17.465 -4.13451 -15.4866
ltibia 15.0205
lfoot 10.2994 2.77238
ltoes -9.5733
1047
root 3.33416 19.7293 0.0301375 14.2318 -6.38194 -8.74728
lowerback 2.42607 -1.19974 4.09112
upperback -4.8924 -1.21805 3.04068
thorax -6.48152 -0.726382 0.980941
lowerneck -16.5803 -1.51485 -4.40971
upperneck 20.4409 -2.10989 4.97579
head 9.26988 -0.784853 2.17843
rclavicle 5.97224e-014 -5.64548e-014
rhumerus -44.8834 8.02061 -83.1416
rradius 60.3748
rwrist 6.73336
rhand -22.4747 -47.9925
rfingers 7.12502
rthumb 3.95041 -797.936
lclavicle 5.97224e-014 -5.64548e-014
lhumerus -43.2246 -17.137 90.516
lradius 52.7788
lwrist 1.0962
lhand -29.3069 -36.9718
lfingers 7.12502
lthumb -2.64813 -7.00851
rfemur -95.9436 3.12137 30.2406
rtibia 139.888
rfoot 8.10724 1.21434
rtoes -5.07072
lfemur -17.7903 -4.45994 -15.4453
ltibia 15.8217
lfoot 9.41699 2.60391
ltoes -10.9943
1048
root 3.33505 19.6583 0.0410349 14.3073 -6.60985 -8.76802
lowerback 2.21632 -0.999218 4.18594
upperback -5.20679 -0.9469 2.97218
thorax -6.69481 -0.604081 0.837829
lowerneck -15.5401 -1.57871 -4.63063
upperneck 20.1559 -2.1814 5.01243
head 8.98639 -0.845787 2.21568
rclavicle -8.05078e-015 9.74045e-015
rhumerus -45.3123 7.82563 -83.3115
rradius 59.7371
rwrist 6.63373
rhand -22.5601 -47.6907
rfingers 7.12502
rthumb 3.86795 -797.635
lclavicle -8.05078e-015 9.74045e-015
lhumerus -44.0779 -16.7951 90.9935
lradius 52.0576
lwrist 0.590048
lhand -29.5579 -37.4012
lfingers 7.12502
lthumb -2.89051 -7.44104
rfemur -95.304 3.71535 30.3665
rtibia 139.54
rfoot 8.08199 0.712912
rtoes -4.56511
lfemur -18.2059 -4.62191 -15.3153
ltibia 16.5009
lfoot 9.49046 2.55036
ltoes -11.5584
1049
root 3.34147 19.5867 0.0544223 14.374 -6.89603 -8.95916
lowerback 2.03442 -0.898413 4.47256
upperback -5.11058 -0.816578 2.90247
thorax -6.49162 -0.553204 0.588459
lowerneck -15.7582 -1.60788 -4.46864
upperneck 19.9849 -2.21693 4.87898
head 8.96648 -0.861433 2.13608
rclavicle 1.4971e-014 1.66979e-014
rhumerus -44.787 7.7233 -83.63
rradius 59.0719
rwrist 6.6898
rhand -22.4164 -47.3181
rfingers 7.12502
rthumb 4.00663 -797.26
lclavicle 1.4971e-014 1.66979e-014
lhumerus -44.0975 -16.2706 90.8714
lradius 51.3187
lwrist 0.0163881
lhand -29.5125 -37.6705
lfingers 7.12502
lthumb -2.8467 -7.70971
rfemur -94.5042 4.64187 30.6571
rtibia 138.957
rfoot 7.91106 0.16061
rtoes -5.10838
lfemur -18.5396 -4.53799 -15.0971
ltibia 17.1805
lfoot 9.47211 2.89739
ltoes -11.3029
1050
root 3.3586 19.5026 0.0698488 14.4069 -7.09565 -9.02556
lowerback 1.95876 -0.825353 4.82806
upperback -5.11044 -0.711991 2.77588
thorax -6.45411 -0.522492 0.248892
lowerneck -15.7818 -1.64235 -4.39554
upperneck 19.783 -2.26049 4.81606
head 8.90239 -0.882877 2.09456
rclavicle -3.19298e-015 -2.44505e-014
rhumerus -44.5192 7.57385 -83.9176
rradius 58.5574
rwrist 6.75982
rhand -21.8105 -46.7997
rfingers 7.12502
rthumb 4.59175 -796.73
lclavicle -3.19298e-015 -2.44505e-014
lhumerus -44.2766 -15.804 90.7971
lradius 50.6317
lwrist -0.424533
lhand -28.8646 -37.5159
lfingers 7.12502
lthumb -2.22092 -7.54775
rfemur -93.5547 5.23356 30.6001
rtibia 138.367
rfoot 7.46888 -0.207656
rtoes -4.82964
lfemur -18.8486 -4.4773 -15.1153
ltibia 17.9806
lfoot 9.22927 3.13493
ltoes -11.9262
